<?xml version="1.0" encoding="UTF-8" standalone="no"?>
<!-- Generator: Adobe Illustrator 12.0.0, SVG Export Plug-In . SVG Version: 6.00 Build 51448)  -->

<svg
   xmlns:dc="http://purl.org/dc/elements/1.1/"
   xmlns:cc="http://creativecommons.org/ns#"
   xmlns:rdf="http://www.w3.org/1999/02/22-rdf-syntax-ns#"
   xmlns:svg="http://www.w3.org/2000/svg"
   xmlns="http://www.w3.org/2000/svg"
   xmlns:sodipodi="http://sodipodi.sourceforge.net/DTD/sodipodi-0.dtd"
   xmlns:inkscape="http://www.inkscape.org/namespaces/inkscape"
   id="Layer_1"
   sodipodi:docname="sponge.svg"
   xml:space="preserve"
   viewBox="0 0 181.39188 144.43358"
   sodipodi:version="0.32"
   version="1.0"
   inkscape:version="0.92.4 (5da689c313, 2019-01-14)"
   width="181.39189"
   height="144.43358"><defs
   id="defs24" />
<sodipodi:namedview
   id="base"
   bordercolor="#666666"
   inkscape:pageshadow="2"
   inkscape:window-width="1920"
   fit-margin-left="10"
   fit-margin-right="10"
   pagecolor="#ffffff"
   inkscape:window-maximized="1"
   inkscape:zoom="2.867766"
   inkscape:window-x="0"
   showgrid="false"
   borderopacity="1.0"
   inkscape:current-layer="Layer_1"
   inkscape:cx="60.998495"
   inkscape:cy="77.572679"
   fit-margin-top="10"
   inkscape:window-y="24"
   fit-margin-bottom="10"
   inkscape:window-height="1027"
   inkscape:pageopacity="0.0" />
<path
   id="path3"
   sodipodi:nodetypes="ccccccccccsccccscccccsssss"
   style="fill-rule:evenodd"
   inkscape:connector-curvature="0"
   d="m 118.04479,10.302559 c 7.672,-1.5730003 14.23,3.536 20.957,2.796 5.608,-0.617 14.686,-1.637 20.192,0.867 6.064,2.758 8.485,14.889 9.474,21.114 0.854,5.383 3.069,10.775 2.439,16.292 -0.782,6.861 -4.954,7.353 -10.765,9.835 5.148,5.991 14.333,13.363 9.856,21.498 -5.612,10.199 -15.243,5.741 -23.637,10.894 4.092,6.745001 10.933,12.068001 5.215,18.703001 -6.877,7.981 -17.245,10.989 -27.067,13.602 -19.014,5.057 -38.193997,7.32 -57.829997,7.32 -11.16,0 -33.688,4.817 -42.14,-4.771 -4.598,-5.218 -2.164,-12.355 2.106,-17.018 2.06,-2.249 17.312,-9.436 15.311,-11.761001 -0.975,-1.133 -9.818,-0.9 -11.413,-1.015 -4.205,-0.302 -8.537,0.038 -12.703,-0.336 -3.13,-0.281 -8.1119998,-1.323 -8.039,-5.688 0.10879,-6.401 13.167,-10.976 17.896,-12.724 5.864,-2.167 15.609,-2.099 14.259,-10.219 -0.539,-3.24 -3.637,-6.049 -3.637,-9.159 -0.001,-4.416 3.106,-4.339 -1.722,-7.23 -1.7362,-1.0395 -1.752,-2.7023 -0.92095,-3.726 0.41555,-0.51183 4.1299,-2.9731 9.3249,-3.8438 5.0573,-0.84769 10.628,-4.5564 14.481,-7.5171 1.493,-1.1473 13.121,-1.6236 18.775,-8.6202 0.62564,-0.77412 18.809,-8.4776 21.653997,-12.626" />
<path
   id="path5"
   style="fill:#00a0c6;fill-rule:evenodd"
   inkscape:connector-curvature="0"
   d="m 35.080793,127.34 c 20.536,-0.221 41.66,0.445 62.02,-2.677 9.976997,-1.529 20.045997,-3.062 29.540997,-6.563 7.749,-2.857 16.537,-4.393 20.631,-12.355 3.216,-6.256001 -21.387,-13.979001 -8.17,-19.088001 6.579,-2.543 16.237,-0.167 21.819,-4.627 0.943,-0.754 2.5,-2.555 2.775,-3.76 0.513,-2.242 -2.331,-9.103 -5.112,-9.41 -3.538,-0.391 -5.513,0.011 -7.042,0.636 -1.804,0.736 -2.759,2.314 -5.741,2.314 -1.545,0 -4.509,-1.576 -5.838,-1.157 -1.958,0.617 -6.35,9.113 -8.134,7.99 -7.631,-4.804 -7.627,-0.67 -10.863,4.918 -3.639,6.285 -3.646,6.851 -9.999,7.915 -5.67,0.95 -11.905997,0.431 -18.181997,0.965 -4.354,0.371 -7.909,0.875 -11.867,0.096 -2.955,-0.582 -5.329,-1.326 -8.421,-1.445 -3.492,-0.135 -5.931,0.354 -8.709,-2.023 -3.718,-3.183 -8.143,3.703 -10.527,1.792 -3.217,-2.577 -7.44,-4.771 -8.983,-8.658 -0.563,-1.416 -7.032,1.156 -8.624,1.659 -6.136,1.938 -12.134,4.145 -16.938,8.58 9.878,1.477 20.272,-1.148 29.566,3.386 7.691,3.752 2.659,9.208001 -2.701,11.907001 -5.128,2.584 -18.241,8.106 -16.722,15.943 0.68,3.505 3.517,2.619 6.221,3.662" />
<path
   id="path7"
   style="fill-rule:evenodd"
   inkscape:connector-curvature="0"
   d="m 78.717793,122.72 c 10.485,-0.664 21.464997,-1.263 31.483997,-4.628 2.146,-0.721 16.948,-6.177 8.039,-9.93 -2.66,-1.12 -10.73,4.061 -14.067,5.012 -5.911997,1.685 -12.008997,2.298 -18.103997,2.913 -8.693,0.877 -23.843,0.153 -7.352,6.633" />
<path
   id="path9"
   style="fill-rule:evenodd"
   inkscape:connector-curvature="0"
   d="m 84.077793,111.63 c 4.229,-1.001 19.232997,-2.13 21.052997,-5.688 2.234,-4.371 -2.581,-5.232 -5.313997,-4.523 -3.333,0.864 -20.339,2.85 -21.001,6.452 -0.488,2.65 3.195,3.783 5.262,3.759" />
<path
   id="path11"
   style="fill:#ffdb00;fill-rule:evenodd"
   inkscape:connector-curvature="0"
   d="m 82.545793,87.334999 c 3.907,-0.705 7.776,-2.17 11.771,-2.313 3.415,-0.123 7.419997,2.334 10.478997,0.964 1.45,-0.649 3.095,-1.508 4.688,-1.688 4.066,-0.456 4.921,-6.405 6.844,-9.496 4.517,-7.257 8.39,-3.713 14.257,-5.881 4.159,-1.537 3.659,-6.264 9.762,-4.771 4.808,1.175 5.072,-2.943 9.091,-5.641 3.418,-2.294 7.541,-2.871 11.005,-4.724 3.627,-1.939 4.911,-4.356 4.211,-8.919 -0.38,-2.479 -0.393,-5.077 -1.531,-7.375 -1.414,-2.855 -0.093,-4.347 -0.479,-7.037 -1.617,-11.281 -9.652,-12.672 -18.997,-11.373 -5.375,0.747 -8.364,-0.281 -13.349,-1.931 -3.019,-0.999 -5.655,-1.62 -8.756,-0.482 -4.576,1.68 -9.515,1.356 -14.211,3.471 -4.933,2.221 -9.387997,5.61 -13.880997,8.589 -4.021,2.666 -11.112,3.663 -13.781,7.343 -2.896,3.992 -8.561,5.437 -13.029,6.789 -3.747,1.133 -8.506,5.274 -11.893,5.768 -4.456,0.648 -4.884,-0.551 -8.853,3.037 6.248,3.764 0.128,5.893 -0.957,9.256 -0.529,1.639 0.69,2.635 1.597,4.096 0.79,1.271 2.561,3.195 2.901,4.677 0.265,1.152 -1.262,2.687 -1.052,3.855 0.262,1.459 2.197,5.966 2.919,7.521 1.778,3.831 2.695,3.49 5.406,0.771 3.155,-3.166 6.927,0.171 10.623,1.061 0.346,0.083 0.473,1.061 0.957,1.157 1.555,0.312 3.313,-0.637 5.072,-0.482 3.326,0.29 6.547,2.301 9.186,3.758" />
<path
   id="path13"
   style="fill-rule:evenodd"
   inkscape:connector-curvature="0"
   d="m 87.809793,79.717999 c 7.88,-2.566 -2.245,-13.036 0.287,-17.547 0.716,-1.274 6.359,-3.42 7.772,-4.274 4.229997,-2.556 8.906997,-4.213 13.471997,-6.041 8.703,-3.484 15.877,-9.274 24.527,-12.544 4.044,-1.528 17.528,-4.837 17.484,-9.919 -0.087,-9.971 -27.615,7.959 -32.154,10.895 -7.964,5.151 -16.632,6.659 -24.689997,11.183 -3.111,1.746 -7.426,7.995 -10.526,8.388 -1.744,0.221 -6.723,-4.067 -9.474,-4.531 -4.54,-0.766 -9.327,0.356 -13.755,-1.188 -5.421,-1.893 -3.171,3.646 -0.024,5.237 4.418,2.234 10.027,-0.922 14.028,1.302 7.183,3.992 7.279,4.851 9.426,12.824 0.666,2.478 1.039,5.22 3.627,6.215" />
<path
   id="path15"
   style="fill-rule:evenodd"
   inkscape:connector-curvature="0"
   d="m 65.703793,75.862999 c 3.822,-0.734 10.837,-5.86 3.637,-8.004 -4.829,-1.438 -8.452,6.488 -3.637,8.004" />
<path
   id="path17"
   style="fill-rule:evenodd"
   inkscape:connector-curvature="0"
   d="m 57.090793,72.005999 c 0.348,-0.991 -0.806,-6.184 -2.775,-3.857 -1.84,2.174 0.896,4.624 2.775,3.857" />
<path
   id="path19"
   style="fill-rule:evenodd"
   inkscape:connector-curvature="0"
   d="m 106.94879,68.051999 c 4.175,-1.239 8.313,-0.837 7.943,-5.784 -0.151,-2.032 -0.53,-3.05 -2.392,-3.952 -5.117,-2.481 -9.431,8.161 -5.551,9.736" />
<path
   id="path21"
   style="fill-rule:evenodd"
   inkscape:connector-curvature="0"
   d="m 123.98479,64.966999 c 2.723,0.187 7.065,-3.434 4.593,-6.17 -3.032,-3.353 -10.581,4.434 -4.593,6.17" />
<path
   id="path23"
   style="fill-rule:evenodd"
   inkscape:connector-curvature="0"
   d="m 143.69479,54.941999 c 1.975,0.06 3.106,-1.407 1.627,-3.182 -2.777,-3.331 -5.712,2.733 -1.627,3.182" />
<path
   id="path25"
   style="fill-rule:evenodd"
   inkscape:connector-curvature="0"
   d="m 130.68479,51.085999 c 3.555,0.081 2.651,-4.725 -0.384,-4.436 -2.319,0.221 -2.275,4.008 0.384,4.436" />
<path
   id="path27"
   style="fill-rule:evenodd"
   inkscape:connector-curvature="0"
   d="m 79.387793,50.409999 c 2.485,0.334 5.986,-0.426 7.656,-2.506 0.909,-1.132 2.543,-6.942 -0.383,-6.942 -3.671,0 -12.738,6.733 -7.273,9.448" />
<path
   id="path31"
   style="fill-rule:evenodd"
   inkscape:connector-curvature="0"
   d="m 154.50479,42.310999 c 2.07,-1.367 1.133,-4.985 -1.436,-5.012 -4.115,-0.042 -2.462,5.791 1.436,5.012" />
<path
   id="path33"
   style="fill-rule:evenodd"
   inkscape:connector-curvature="0"
   d="m 100.91979,39.611999 c 6.157,0.463 5.107,-7.73 0.383,-4.916 -2.163997,1.289 -2.655997,4.106 -0.383,4.916" />
<path
   id="path35"
   style="fill-rule:evenodd"
   inkscape:connector-curvature="0"
   d="m 116.99479,32.380999 c 2.206,-0.709 2.539,-4.063 -0.097,-4.82 -3.127,-0.897 -2.508,4.417 0.097,4.82" />
<path
   id="path37"
   style="fill-rule:evenodd"
   inkscape:connector-curvature="0"
   d="m 103.98279,30.356999 c 2.867,-1.003 1.046,-5.661 -1.531,-5.109 -3.382997,0.724 -0.527,4.87 1.531,5.109" />
<path
   id="path39"
   style="fill-rule:evenodd"
   inkscape:connector-curvature="0"
   d="m 125.32479,27.175999 c 3.624,-2.451 -2.695,-3.586 0,0" />
<metadata
   id="metadata21"><rdf:RDF><cc:Work><dc:format>image/svg+xml</dc:format><dc:type
         rdf:resource="http://purl.org/dc/dcmitype/StillImage" /><cc:license
         rdf:resource="http://creativecommons.org/publicdomain/zero/1.0/" /><dc:publisher><cc:Agent
           rdf:about="http://openclipart.org/"><dc:title>Openclipart</dc:title></cc:Agent></dc:publisher><dc:title>Sponge in water</dc:title><dc:date>2010-09-06T18:23:59</dc:date><dc:description>Sponge lying in water.</dc:description><dc:source>https://openclipart.org/detail/83923/sponge-in-water-by-iyo</dc:source><dc:creator><cc:Agent><dc:title>Iyo</dc:title></cc:Agent></dc:creator><dc:subject><rdf:Bag><rdf:li>clean</rdf:li><rdf:li>cleaning</rdf:li><rdf:li>sponge</rdf:li><rdf:li>water</rdf:li></rdf:Bag></dc:subject></cc:Work><cc:License
       rdf:about="http://creativecommons.org/publicdomain/zero/1.0/"><cc:permits
         rdf:resource="http://creativecommons.org/ns#Reproduction" /><cc:permits
         rdf:resource="http://creativecommons.org/ns#Distribution" /><cc:permits
         rdf:resource="http://creativecommons.org/ns#DerivativeWorks" /></cc:License></rdf:RDF></metadata></svg>